<svg version="1.1" xmlns="http://www.w3.org/2000/svg" viewBox="0 0 1520.132078384686 654.7337805585324" width="3040.264156769372" height="1309.4675611170649">
  <!-- svg-source:excalidraw -->
  
  <defs>
    <style class="style-fonts">
      @font-face {
        font-family: "Virgil";
        src: url("https://excalidraw.com/Virgil.woff2");
      }
      @font-face {
        font-family: "Cascadia";
        src: url("https://excalidraw.com/Cascadia.woff2");
      }
      @font-face {
        font-family: "Assistant";
        src: url("https://excalidraw.com/Assistant-Regular.woff2");
      }
    </style>
    
  </defs>
  <rect x="0" y="0" width="1520.132078384686" height="654.7337805585324" fill="#ffffff"></rect><g stroke-linecap="round" transform="translate(10 253.86188394831794) rotate(0 58.95898437499997 37.314453125)"><path d="M18.66 0 C34.68 -1.37, 53.73 -1.48, 99.26 0 M18.66 0 C49.85 0.03, 81.67 1.12, 99.26 0 M99.26 0 C112.04 -0.52, 117.18 6.26, 117.92 18.66 M99.26 0 C112.7 -1.48, 117.14 3.96, 117.92 18.66 M117.92 18.66 C119.52 29.67, 118.76 42.4, 117.92 55.97 M117.92 18.66 C118.73 30.62, 117.82 42.38, 117.92 55.97 M117.92 55.97 C117.01 69.05, 112.81 75.24, 99.26 74.63 M117.92 55.97 C117.62 69.49, 111.62 75.38, 99.26 74.63 M99.26 74.63 C72.98 74.72, 44.23 75.13, 18.66 74.63 M99.26 74.63 C71.43 74.05, 43.02 73.32, 18.66 74.63 M18.66 74.63 C5.66 73.19, -0.41 69.13, 0 55.97 M18.66 74.63 C5.9 72.85, 1.94 67.49, 0 55.97 M0 55.97 C0.82 46.7, -1.57 31.5, 0 18.66 M0 55.97 C0.39 47.6, 0.41 39.61, 0 18.66 M0 18.66 C0.3 4.41, 4.5 1.46, 18.66 0 M0 18.66 C0.46 5.25, 5.73 -1.17, 18.66 0" stroke="#1e1e1e" stroke-width="2" fill="none"></path></g><g transform="translate(39.662109375 279.17633707331794) rotate(0 29.296875 12)"><text x="29.296875" y="19.3125" font-family="Cascadia, Segoe UI Emoji" font-size="20px" fill="#1e1e1e" text-anchor="middle" style="white-space: pre;" direction="ltr" dominant-baseline="alphabetic">Users</text></g><g stroke-linecap="round" transform="translate(413.80432896804945 139.8431215479162) rotate(0 134.33593750000006 50.3828125)"><path d="M25.19 0 C73.55 1, 117.99 0.65, 243.48 0 M25.19 0 C85.3 -1.8, 144.79 -1.56, 243.48 0 M243.48 0 C261.14 -1.29, 267.99 6.44, 268.67 25.19 M243.48 0 C261.05 -1.62, 266.38 10.54, 268.67 25.19 M268.67 25.19 C269.21 36.42, 269.74 49.89, 268.67 75.57 M268.67 25.19 C268.19 42.03, 269.2 58.54, 268.67 75.57 M268.67 75.57 C268.41 93.3, 260.21 101.42, 243.48 100.77 M268.67 75.57 C269.74 92.91, 259.52 102.64, 243.48 100.77 M243.48 100.77 C174.92 101.62, 103.1 101.51, 25.19 100.77 M243.48 100.77 C173.44 99.15, 103.71 100.09, 25.19 100.77 M25.19 100.77 C8.12 99.22, 1.69 91.57, 0 75.57 M25.19 100.77 C8.44 100.39, 1.23 93.24, 0 75.57 M0 75.57 C-1.25 57.07, -0.3 36.7, 0 25.19 M0 75.57 C-0.21 60.9, -1.22 48.76, 0 25.19 M0 25.19 C0.4 7.56, 7.97 -1.01, 25.19 0 M0 25.19 C-0.28 10.18, 7.33 -0.86, 25.19 0" stroke="#1e1e1e" stroke-width="2" fill="none"></path></g><g transform="translate(454.39026646804945 178.2259340479162) rotate(0 93.75 12)"><text x="93.75" y="19.3125" font-family="Cascadia, Segoe UI Emoji" font-size="20px" fill="#1e1e1e" text-anchor="middle" style="white-space: pre;" direction="ltr" dominant-baseline="alphabetic">Daily Challenges</text></g><g stroke-linecap="round" transform="translate(413.80432896804945 334.3196464300365) rotate(0 134.33593750000006 50.3828125)"><path d="M25.19 0 C80.31 -0.25, 137.7 2.53, 243.48 0 M25.19 0 C111.57 1.51, 196.48 1.46, 243.48 0 M243.48 0 C258.43 0.58, 270.17 6.42, 268.67 25.19 M243.48 0 C259.09 -1.41, 268.37 6.43, 268.67 25.19 M268.67 25.19 C267.75 42.13, 267.72 54.45, 268.67 75.57 M268.67 25.19 C268.43 43.04, 268.9 62.21, 268.67 75.57 M268.67 75.57 C269.63 92.66, 259.52 99.53, 243.48 100.77 M268.67 75.57 C267.24 91.13, 262.39 101.16, 243.48 100.77 M243.48 100.77 C174.29 99, 108.23 98.86, 25.19 100.77 M243.48 100.77 C163.03 99.93, 80.8 98.98, 25.19 100.77 M25.19 100.77 C8.6 100.93, 0.04 91.68, 0 75.57 M25.19 100.77 C8.1 100.06, 1.13 92.33, 0 75.57 M0 75.57 C0.54 59.32, 0.23 39.56, 0 25.19 M0 75.57 C-0.41 56.05, 0.26 37.76, 0 25.19 M0 25.19 C-1.17 8.32, 7.23 -1.83, 25.19 0 M0 25.19 C0.34 8.5, 6.44 1.33, 25.19 0" stroke="#1e1e1e" stroke-width="2" fill="none"></path></g><g transform="translate(442.67151646804945 372.7024589300365) rotate(0 105.46875 12)"><text x="105.46875" y="19.3125" font-family="Cascadia, Segoe UI Emoji" font-size="20px" fill="#1e1e1e" text-anchor="middle" style="white-space: pre;" direction="ltr" dominant-baseline="alphabetic">Branded Challenges</text></g><g stroke-linecap="round" transform="translate(1392.214109634686 261.0645027602124) rotate(0 58.958984375 48.00046943665376)"><path d="M24 0 C41.57 -0.47, 58.62 -1.05, 93.92 0 M24 0 C47.28 0.88, 70.95 0.05, 93.92 0 M93.92 0 C108.94 0.92, 117.31 7.39, 117.92 24 M93.92 0 C111.86 0.56, 115.8 9.46, 117.92 24 M117.92 24 C115.64 39.17, 119.35 55.09, 117.92 72 M117.92 24 C117.18 35.26, 117.17 46.16, 117.92 72 M117.92 72 C118.45 87.44, 109.78 96.84, 93.92 96 M117.92 72 C117.24 86.96, 112.01 96.63, 93.92 96 M93.92 96 C67.95 95.21, 46.06 96.06, 24 96 M93.92 96 C69.1 97.01, 45.71 97.24, 24 96 M24 96 C6.75 94.57, -0.35 86.71, 0 72 M24 96 C8.81 94.68, -1.4 88.89, 0 72 M0 72 C1.27 54.51, 0.26 36.45, 0 24 M0 72 C-0.37 57.17, 0.03 40.81, 0 24 M0 24 C-0.61 6.14, 7.52 -0.03, 24 0 M0 24 C-0.03 9.46, 7.74 1.55, 24 0" stroke="#1e1e1e" stroke-width="2" fill="none"></path></g><g transform="translate(1416.016844009686 297.06497219686617) rotate(0 35.15625 12)"><text x="35.15625" y="19.3125" font-family="Cascadia, Segoe UI Emoji" font-size="20px" fill="#1e1e1e" text-anchor="middle" style="white-space: pre;" direction="ltr" dominant-baseline="alphabetic">Brands</text></g><g stroke-linecap="round" transform="translate(774.9106414905289 137.0446287097659) rotate(0 98.1769524379556 50.3828125)"><path d="M25.19 0 C65.01 0.9, 105.8 -1.89, 171.16 0 M25.19 0 C75.76 -0.6, 126.03 0.58, 171.16 0 M171.16 0 C188.54 -0.43, 195.2 8.22, 196.35 25.19 M171.16 0 C187.31 1.08, 197.61 8.57, 196.35 25.19 M196.35 25.19 C195.36 39.68, 195.82 54.78, 196.35 75.57 M196.35 25.19 C197.17 43.53, 197.7 60.99, 196.35 75.57 M196.35 75.57 C194.99 91.34, 187.27 101.22, 171.16 100.77 M196.35 75.57 C197.62 92.29, 185.7 99.18, 171.16 100.77 M171.16 100.77 C126.18 99.77, 86.62 100, 25.19 100.77 M171.16 100.77 C128.18 100.81, 84.11 100.36, 25.19 100.77 M25.19 100.77 C8.93 100.37, -0.38 93.75, 0 75.57 M25.19 100.77 C10.16 102.8, 1.99 94.54, 0 75.57 M0 75.57 C-0.14 57.48, 2.02 35.6, 0 25.19 M0 75.57 C0.76 65.01, 0.5 52.15, 0 25.19 M0 25.19 C-1.82 7.56, 9.22 -0.05, 25.19 0 M0 25.19 C-1.95 6.22, 10.29 -1.72, 25.19 0" stroke="#1e1e1e" stroke-width="2" fill="none"></path></g><g transform="translate(826.2125939284845 175.4274412097659) rotate(0 46.875 12)"><text x="46.875" y="19.3125" font-family="Cascadia, Segoe UI Emoji" font-size="20px" fill="#1e1e1e" text-anchor="middle" style="white-space: pre;" direction="ltr" dominant-baseline="alphabetic">Treasury</text></g><g mask="url(#mask-BowVkNb__ibG9YbqeBpvu)" stroke-linecap="round"><g transform="translate(1390.106389452177 287.0625998527539) rotate(0 -142.52443701876132 0.9065239151028379)"><path d="M0.31 0.85 C-47.29 1.19, -238.11 1.59, -285.77 1.83 M-0.99 0.26 C-48.19 0.81, -235.82 3.39, -283.43 3.37" stroke="#1e1e1e" stroke-width="2" fill="none"></path></g><g transform="translate(1390.106389452177 287.0625998527539) rotate(0 -142.52443701876132 0.9065239151028379)"><path d="M-260.01 -5.36 C-265.29 -4, -273.39 -1.26, -283.43 3.37 M-260.01 -5.36 C-267.98 -2.02, -276.11 1.53, -283.43 3.37" stroke="#1e1e1e" stroke-width="2" fill="none"></path></g><g transform="translate(1390.106389452177 287.0625998527539) rotate(0 -142.52443701876132 0.9065239151028379)"><path d="M-259.88 11.74 C-265.18 8.21, -273.31 6.07, -283.43 3.37 M-259.88 11.74 C-267.86 9.3, -276.03 7.08, -283.43 3.37" stroke="#1e1e1e" stroke-width="2" fill="none"></path></g></g><mask id="mask-BowVkNb__ibG9YbqeBpvu"><rect x="0" y="0" fill="#fff" width="1775.1552634896996" height="388.8756476829596"></rect><rect x="1158.5194524334156" y="268.76912376785674" fill="#000" width="178.125" height="38.4" opacity="1"></rect></mask><g transform="translate(1158.5194524334156 268.7691237678568) rotate(0 88.85570159330962 20.10796583452054)"><text x="89.0625" y="15.45" font-family="Cascadia, Segoe UI Emoji" font-size="16px" fill="#1e1e1e" text-anchor="middle" style="white-space: pre;" direction="ltr" dominant-baseline="alphabetic">Publish challenges </text><text x="89.0625" y="34.65" font-family="Cascadia, Segoe UI Emoji" font-size="16px" fill="#1e1e1e" text-anchor="middle" style="white-space: pre;" direction="ltr" dominant-baseline="alphabetic">with $GVN</text></g><g stroke-linecap="round" transform="translate(169.69383434347884 10) rotate(0 468.627880849705 317.3668902792662)"><path d="M32 0 C258.06 -2.81, 486.02 -3.04, 905.26 0 M32 0 C368.95 -0.65, 706.85 -0.91, 905.26 0 M905.26 0 C926.98 1.43, 938.55 9.14, 937.26 32 M905.26 0 C924.38 1.97, 935.21 11.2, 937.26 32 M937.26 32 C935.86 255.46, 936.21 478.92, 937.26 602.73 M937.26 32 C938.82 167.96, 938.43 303.65, 937.26 602.73 M937.26 602.73 C937.95 624.28, 926.76 636.49, 905.26 634.73 M937.26 602.73 C937.52 623.84, 928.57 637, 905.26 634.73 M905.26 634.73 C565.63 636.24, 225.8 636.44, 32 634.73 M905.26 634.73 C591.25 632.87, 277.88 632.78, 32 634.73 M32 634.73 C11.45 633.65, 0.91 624.86, 0 602.73 M32 634.73 C11.76 636.36, -1.13 625.01, 0 602.73 M0 602.73 C1.66 398.71, 1.36 195.57, 0 32 M0 602.73 C-0.35 449.83, 0.03 296.37, 0 32 M0 32 C-0.47 9.39, 11.1 0.91, 32 0 M0 32 C2.12 9.97, 9.5 0.9, 32 0" stroke="#1e1e1e" stroke-width="2" fill="none"></path></g><g mask="url(#mask-FtbXOfnfLjgxIoBlBI9BM)" stroke-linecap="round"><g transform="translate(1100.1731645888296 293.903891004471) rotate(0 -63.83692135125057 -50.19851171600597)"><path d="M0.75 -0.82 C-20.68 -17.57, -106.31 -84.99, -127.89 -101.52 M-0.32 1.36 C-21.98 -15.19, -107.94 -83.33, -128.96 -100.58" stroke="#1e1e1e" stroke-width="2" fill="none"></path></g><g transform="translate(1100.1731645888296 293.903891004471) rotate(0 -63.83692135125057 -50.19851171600597)"><path d="M-105.29 -92.52 C-115.04 -95.62, -124 -99.92, -128.96 -100.58 M-105.29 -92.52 C-112.62 -94.81, -121.1 -97.36, -128.96 -100.58" stroke="#1e1e1e" stroke-width="2" fill="none"></path></g><g transform="translate(1100.1731645888296 293.903891004471) rotate(0 -63.83692135125057 -50.19851171600597)"><path d="M-116.01 -79.19 C-121.81 -87.12, -126.95 -96.18, -128.96 -100.58 M-116.01 -79.19 C-119.68 -85.93, -124.6 -92.9, -128.96 -100.58" stroke="#1e1e1e" stroke-width="2" fill="none"></path></g></g><mask id="mask-FtbXOfnfLjgxIoBlBI9BM"><rect x="0" y="0" fill="#fff" width="1327.8470072913308" height="494.3009144364829"></rect><rect x="998.8362432375789" y="224.50537928846506" fill="#000" width="75" height="38.4" opacity="1"></rect></mask><g transform="translate(998.8362432375789 224.50537928846506) rotate(0 37.23231833552484 19.316894829296473)"><text x="37.5" y="15.45" font-family="Cascadia, Segoe UI Emoji" font-size="16px" fill="#1e1e1e" text-anchor="middle" style="white-space: pre;" direction="ltr" dominant-baseline="alphabetic">10% for </text><text x="37.5" y="34.65" font-family="Cascadia, Segoe UI Emoji" font-size="16px" fill="#1e1e1e" text-anchor="middle" style="white-space: pre;" direction="ltr" dominant-baseline="alphabetic">treasury</text></g><g mask="url(#mask-UT0I5uvtL-RBgec_mYuXk)" stroke-linecap="round"><g transform="translate(1100.2418603806325 314.45334180527277) rotate(0 -206.7098660268848 35.50921836658699)"><path d="M0.82 -0.9 C-68.15 11.18, -345 60.26, -414.04 72.18 M-0.21 1.25 C-68.76 13.05, -342.66 58.93, -411.65 70.67" stroke="#1e1e1e" stroke-width="2" fill="none"></path></g><g transform="translate(1100.2418603806325 314.45334180527277) rotate(0 -206.7098660268848 35.50921836658699)"><path d="M-389.9 58.33 C-397.58 60.94, -400.3 65.51, -411.65 70.67 M-389.9 58.33 C-396.15 62.26, -401.13 65.67, -411.65 70.67" stroke="#1e1e1e" stroke-width="2" fill="none"></path></g><g transform="translate(1100.2418603806325 314.45334180527277) rotate(0 -206.7098660268848 35.50921836658699)"><path d="M-387.06 75.19 C-395.5 73.05, -399.02 72.85, -411.65 70.67 M-387.06 75.19 C-394.16 74.65, -399.89 73.57, -411.65 70.67" stroke="#1e1e1e" stroke-width="2" fill="none"></path></g></g><mask id="mask-UT0I5uvtL-RBgec_mYuXk"><rect x="0" y="0" fill="#fff" width="1613.661592434402" height="485.47177853844676"></rect><rect x="776.3444943537475" y="340.36256017185974" fill="#000" width="234.375" height="19.2" opacity="1"></rect></mask><g transform="translate(776.3444943537477 340.36256017185974) rotate(0 117.28989964351058 9.733191899210254)"><text x="117.1875" y="15.45" font-family="Cascadia, Segoe UI Emoji" font-size="16px" fill="#1e1e1e" text-anchor="middle" style="white-space: pre;" direction="ltr" dominant-baseline="alphabetic">80% for challenge rewards</text></g><g mask="url(#mask-qC3Gol1lcVpmnPz_4txM6)" stroke-linecap="round"><g transform="translate(1111.7804925742587 330.8543547053328) rotate(0 140.10035775534652 -0.8816223592604899)"><path d="M0.2 -0.59 C46.98 -0.98, 234.79 -2.17, 281.35 -2.28 M-1.16 1.71 C45.51 1.47, 234.4 -0.18, 281.01 -1.01" stroke="#1e1e1e" stroke-width="2" fill="none"></path></g><g transform="translate(1111.7804925742587 330.8543547053328) rotate(0 140.10035775534652 -0.8816223592604899)"><path d="M257.62 7.83 C264.87 6.6, 273.23 0.52, 281.01 -1.01 M257.62 7.83 C264.99 5.54, 273.13 2.37, 281.01 -1.01" stroke="#1e1e1e" stroke-width="2" fill="none"></path></g><g transform="translate(1111.7804925742587 330.8543547053328) rotate(0 140.10035775534652 -0.8816223592604899)"><path d="M257.41 -9.27 C264.74 -4.48, 273.18 -4.54, 281.01 -1.01 M257.41 -9.27 C264.82 -5.64, 273.04 -2.89, 281.01 -1.01" stroke="#1e1e1e" stroke-width="2" fill="none"></path></g></g><mask id="mask-qC3Gol1lcVpmnPz_4txM6"><rect x="0" y="0" fill="#fff" width="1491.9812080849517" height="432.6175994238538"></rect><rect x="1162.818350329605" y="310.77273234607236" fill="#000" width="178.125" height="38.4" opacity="1"></rect></mask><g transform="translate(1162.818350329605 310.77273234607236) rotate(0 89.05763183641704 19.798875691336548)"><text x="89.0625" y="15.45" font-family="Cascadia, Segoe UI Emoji" font-size="16px" fill="#1e1e1e" text-anchor="middle" style="white-space: pre;" direction="ltr" dominant-baseline="alphabetic">Receive GreenVerse </text><text x="89.0625" y="34.65" font-family="Cascadia, Segoe UI Emoji" font-size="16px" fill="#1e1e1e" text-anchor="middle" style="white-space: pre;" direction="ltr" dominant-baseline="alphabetic">certificates</text></g><g stroke-linecap="round"><g transform="translate(770.7033166167687 186.8358831719411) rotate(0 -42.71208913646217 1.814644251165447)"><path d="M-1.06 0.62 C-15.25 1.14, -70.57 3.47, -84.49 4.06 M0.58 -0.1 C-13.74 -0.02, -70.7 1.79, -84.95 2.16" stroke="#1e1e1e" stroke-width="2" fill="none"></path></g><g transform="translate(770.7033166167687 186.8358831719411) rotate(0 -42.71208913646217 1.814644251165447)"><path d="M-61.71 -7.06 C-68.88 -2.43, -77.47 0.7, -84.95 2.16 M-61.71 -7.06 C-70.68 -4.35, -78.12 -1.66, -84.95 2.16" stroke="#1e1e1e" stroke-width="2" fill="none"></path></g><g transform="translate(770.7033166167687 186.8358831719411) rotate(0 -42.71208913646217 1.814644251165447)"><path d="M-61.22 10.03 C-68.69 8.58, -77.46 5.62, -84.95 2.16 M-61.22 10.03 C-70.28 6.87, -77.89 3.68, -84.95 2.16" stroke="#1e1e1e" stroke-width="2" fill="none"></path></g></g><mask></mask><g mask="url(#mask-fr9gH1CYHtcpx77fRNVGB)" stroke-linecap="round"><g transform="translate(410.61634317350234 183.93310100395183) rotate(0 -139.6017014060124 54.8347557300616)"><path d="M-0.12 -1.01 C-46.71 17.27, -232.14 90.39, -278.75 108.97 M-1.64 1.08 C-48.43 19.55, -232.93 92.22, -279.46 110.14" stroke="#1e1e1e" stroke-width="2" fill="none"></path></g><g transform="translate(410.61634317350234 183.93310100395183) rotate(0 -139.6017014060124 54.8347557300616)"><path d="M-260.68 93.63 C-269.39 100.46, -275.81 104.83, -279.46 110.14 M-260.68 93.63 C-267.63 100.1, -275.24 106.24, -279.46 110.14" stroke="#1e1e1e" stroke-width="2" fill="none"></path></g><g transform="translate(410.61634317350234 183.93310100395183) rotate(0 -139.6017014060124 54.8347557300616)"><path d="M-254.47 109.56 C-265.38 110.5, -274.1 109, -279.46 110.14 M-254.47 109.56 C-263.71 110.18, -273.61 110.47, -279.46 110.14" stroke="#1e1e1e" stroke-width="2" fill="none"></path></g></g><mask id="mask-fr9gH1CYHtcpx77fRNVGB"><rect x="0" y="0" fill="#fff" width="789.8197459855271" height="393.60261246407504"></rect><rect x="196.01464176748993" y="219.56785673401345" fill="#000" width="150" height="38.4" opacity="1"></rect></mask><g transform="translate(196.01464176748982 219.56785673401345) rotate(0 74.81172794168356 18.92947300391735)"><text x="75" y="15.45" font-family="Cascadia, Segoe UI Emoji" font-size="16px" fill="#1e1e1e" text-anchor="middle" style="white-space: pre;" direction="ltr" dominant-baseline="alphabetic">$GVN for active </text><text x="75" y="34.65" font-family="Cascadia, Segoe UI Emoji" font-size="16px" fill="#1e1e1e" text-anchor="middle" style="white-space: pre;" direction="ltr" dominant-baseline="alphabetic">users</text></g><g mask="url(#mask-nPHfrQa7UI4cHVprcletr)" stroke-linecap="round"><g transform="translate(415.5766372609392 386.6665865574388) rotate(0 -142.4495737164868 -43.17973974744535)"><path d="M-0.34 -0.55 C-47.8 -15.01, -236.93 -72.13, -284.41 -86.24 M1.68 1.77 C-45.93 -12.52, -237.12 -69.85, -285.1 -84.64" stroke="#1e1e1e" stroke-width="2" fill="none"></path></g><g transform="translate(415.5766372609392 386.6665865574388) rotate(0 -142.4495737164868 -43.17973974744535)"><path d="M-260.14 -86 C-269.33 -84.8, -276.48 -85.74, -285.1 -84.64 M-260.14 -86 C-270.75 -84.61, -279.66 -84.81, -285.1 -84.64" stroke="#1e1e1e" stroke-width="2" fill="none"></path></g><g transform="translate(415.5766372609392 386.6665865574388) rotate(0 -142.4495737164868 -43.17973974744535)"><path d="M-265.1 -69.64 C-272.72 -73.85, -278.22 -80.2, -285.1 -84.64 M-265.1 -69.64 C-273.79 -74.72, -280.74 -81.39, -285.1 -84.64" stroke="#1e1e1e" stroke-width="2" fill="none"></path></g></g><mask id="mask-nPHfrQa7UI4cHVprcletr"><rect x="0" y="0" fill="#fff" width="800.4757846939128" height="573.0260660523295"></rect><rect x="179.3770635444523" y="324.28684680999345" fill="#000" width="187.5" height="38.4" opacity="1"></rect></mask><g transform="translate(179.3770635444523 324.28684680999345) rotate(0 94.49111959881154 20.144028935772354)"><text x="93.75" y="15.45" font-family="Cascadia, Segoe UI Emoji" font-size="16px" fill="#1e1e1e" text-anchor="middle" style="white-space: pre;" direction="ltr" dominant-baseline="alphabetic">$GVN for completing </text><text x="93.75" y="34.65" font-family="Cascadia, Segoe UI Emoji" font-size="16px" fill="#1e1e1e" text-anchor="middle" style="white-space: pre;" direction="ltr" dominant-baseline="alphabetic">challenges</text></g><g transform="translate(580.2922614310551 26.809040665389574) rotate(0 58.59375 12)"><text x="0" y="19.3125" font-family="Cascadia, Segoe UI Emoji" font-size="20px" fill="#1e1e1e" text-anchor="start" style="white-space: pre;" direction="ltr" dominant-baseline="alphabetic">GreenVerse</text></g><g stroke-linecap="round" transform="translate(1392.214109634686 508.9539621183501) rotate(0 58.958984375 48.00046943665376)"><path d="M24 0 C43.41 -2.4, 66.05 0.34, 93.92 0 M24 0 C42.46 0.1, 60.51 -0.18, 93.92 0 M93.92 0 C109.8 1.07, 116.42 8.62, 117.92 24 M93.92 0 C108.81 -1.19, 120.02 8, 117.92 24 M117.92 24 C117.81 41.36, 118.36 55.82, 117.92 72 M117.92 24 C117.6 41.43, 117.22 59.33, 117.92 72 M117.92 72 C118.75 87.45, 109.8 97.81, 93.92 96 M117.92 72 C120.21 87.01, 108.69 97.42, 93.92 96 M93.92 96 C76.41 97.6, 59.58 97.49, 24 96 M93.92 96 C72.92 96.79, 52.29 95.75, 24 96 M24 96 C6.79 94.34, -0.79 87.42, 0 72 M24 96 C8.19 95.74, -1.19 86.82, 0 72 M0 72 C-2.44 59.19, -0.9 46.91, 0 24 M0 72 C0.58 55.6, -0.07 38.43, 0 24 M0 24 C-0.18 7.22, 6.84 1.47, 24 0 M0 24 C-0.53 5.77, 6.73 -2.07, 24 0" stroke="#1e1e1e" stroke-width="2" fill="none"></path></g><g transform="translate(1427.735594009686 544.9544315550038) rotate(0 23.4375 12)"><text x="23.4375" y="19.3125" font-family="Cascadia, Segoe UI Emoji" font-size="20px" fill="#1e1e1e" text-anchor="middle" style="white-space: pre;" direction="ltr" dominant-baseline="alphabetic">NGOs</text></g><g stroke-linecap="round" transform="translate(413.80432896804945 506.5716190550038) rotate(0 134.33593750000006 50.3828125)"><path d="M25.19 0 C77.44 1.08, 125.89 1.43, 243.48 0 M25.19 0 C69.9 -0.06, 115.74 0.82, 243.48 0 M243.48 0 C261.01 -1.72, 268.8 7.88, 268.67 25.19 M243.48 0 C259.42 2.15, 270.33 8.77, 268.67 25.19 M268.67 25.19 C269.67 37.92, 268.06 48.53, 268.67 75.57 M268.67 25.19 C267.48 39.65, 267.96 55.05, 268.67 75.57 M268.67 75.57 C268.33 92.81, 261.67 99.32, 243.48 100.77 M268.67 75.57 C269.85 92.97, 261 100.93, 243.48 100.77 M243.48 100.77 C192.08 101.42, 142.08 101.18, 25.19 100.77 M243.48 100.77 C200.03 99.46, 155.69 100.6, 25.19 100.77 M25.19 100.77 C7.3 102.56, 0.72 91.32, 0 75.57 M25.19 100.77 C8.79 102.4, -1.74 92.46, 0 75.57 M0 75.57 C1.98 61.77, 0.3 46.2, 0 25.19 M0 75.57 C-0.15 61.58, 0.51 47.89, 0 25.19 M0 25.19 C1.39 7.19, 9.84 0.87, 25.19 0 M0 25.19 C-0.48 8.32, 7.3 -2.28, 25.19 0" stroke="#1e1e1e" stroke-width="2" fill="none"></path></g><g transform="translate(436.81214146804945 544.9544315550038) rotate(0 111.328125 12)"><text x="111.328125" y="19.3125" font-family="Cascadia, Segoe UI Emoji" font-size="20px" fill="#1e1e1e" text-anchor="middle" style="white-space: pre;" direction="ltr" dominant-baseline="alphabetic">Sustainability fund</text></g><g mask="url(#mask-KpaW_w37u2sLuFdsumbVl)" stroke-linecap="round"><g transform="translate(135.169602403545 310.17606674934984) rotate(0 137.91053287105572 121.45155976780057)"><path d="M-1 -1.1 C44.94 39.4, 230.7 201.34, 276.87 242.01 M0.67 0.93 C46.45 41.66, 230.69 202.53, 276.47 243.08" stroke="#1e1e1e" stroke-width="2" fill="none"></path></g><g transform="translate(135.169602403545 310.17606674934984) rotate(0 137.91053287105572 121.45155976780057)"><path d="M253.18 234 C260.57 239.57, 270.24 241.81, 276.47 243.08 M253.18 234 C259.68 237.72, 267.18 239.8, 276.47 243.08" stroke="#1e1e1e" stroke-width="2" fill="none"></path></g><g transform="translate(135.169602403545 310.17606674934984) rotate(0 137.91053287105572 121.45155976780057)"><path d="M264.47 221.15 C267.24 231.77, 272.39 239.14, 276.47 243.08 M264.47 221.15 C267.54 228.76, 271.62 234.73, 276.47 243.08" stroke="#1e1e1e" stroke-width="2" fill="none"></path></g></g><mask id="mask-KpaW_w37u2sLuFdsumbVl"><rect x="0" y="0" fill="#fff" width="510.99066814565646" height="653.079186284951"></rect><rect x="235.58013527460076" y="422.02762651715034" fill="#000" width="75" height="19.2" opacity="1"></rect></mask><g transform="translate(235.5801352746007 422.0276265171504) rotate(0 37.52322311773892 9.138329087966156)"><text x="37.5" y="15.45" font-family="Cascadia, Segoe UI Emoji" font-size="16px" fill="#1e1e1e" text-anchor="middle" style="white-space: pre;" direction="ltr" dominant-baseline="alphabetic">Donation</text></g><g mask="url(#mask-J4wtSPiiHUILtlJfJUJvd)" stroke-linecap="round"><g transform="translate(1101.02589830592 328.4223976066903) rotate(0 -206.97664284660596 98.06021170452709)"><path d="M0.84 0.75 C-68.01 33.4, -344.36 163.13, -413.64 195.75 M-0.18 0.09 C-69.11 32.94, -345.71 164.12, -414.42 197.09" stroke="#1e1e1e" stroke-width="2" fill="none"></path></g><g transform="translate(1101.02589830592 328.4223976066903) rotate(0 -206.97664284660596 98.06021170452709)"><path d="M-396.89 179.26 C-400.1 184.4, -406.38 186.88, -414.42 197.09 M-396.89 179.26 C-402.78 184.38, -408.07 190.03, -414.42 197.09" stroke="#1e1e1e" stroke-width="2" fill="none"></path></g><g transform="translate(1101.02589830592 328.4223976066903) rotate(0 -206.97664284660596 98.06021170452709)"><path d="M-389.54 194.7 C-394.57 196, -402.71 194.58, -414.42 197.09 M-389.54 194.7 C-397.72 194.81, -405.4 195.42, -414.42 197.09" stroke="#1e1e1e" stroke-width="2" fill="none"></path></g></g><mask id="mask-J4wtSPiiHUILtlJfJUJvd"><rect x="0" y="0" fill="#fff" width="1614.979183999132" height="624.5428210157445"></rect><rect x="790.9242554593143" y="416.8826093112174" fill="#000" width="206.25" height="19.2" opacity="1"></rect></mask><g transform="translate(790.924255459314 416.8826093112174) rotate(0 103.30962301674765 10.131067679906266)"><text x="103.125" y="15.45" font-family="Cascadia, Segoe UI Emoji" font-size="16px" fill="#1e1e1e" text-anchor="middle" style="white-space: pre;" direction="ltr" dominant-baseline="alphabetic">10% for sustainability</text></g><g mask="url(#mask-p9_J9QAT4nNq5z3qZ1G3L)" stroke-linecap="round"><g transform="translate(689.8350401822597 544.8137075280979) rotate(0 350.2972939626202 -0.026958832603952487)"><path d="M0.72 0.26 C117.72 0.17, 584.77 -0.97, 701.61 -0.99 M-0.36 -0.65 C116.6 -0.57, 584.2 -0.31, 701.2 0.05" stroke="#1e1e1e" stroke-width="2" fill="none"></path></g><g transform="translate(689.8350401822597 544.8137075280979) rotate(0 350.2972939626202 -0.026958832603952487)"><path d="M677.69 8.57 C684.47 7.84, 688.77 5.83, 701.2 0.05 M677.69 8.57 C684.09 6.06, 692.99 3.67, 701.2 0.05" stroke="#1e1e1e" stroke-width="2" fill="none"></path></g><g transform="translate(689.8350401822597 544.8137075280979) rotate(0 350.2972939626202 -0.026958832603952487)"><path d="M677.72 -8.54 C684.42 -4.68, 688.72 -2.09, 701.2 0.05 M677.72 -8.54 C684.11 -5.66, 693 -2.67, 701.2 0.05" stroke="#1e1e1e" stroke-width="2" fill="none"></path></g></g><mask id="mask-p9_J9QAT4nNq5z3qZ1G3L"><rect x="0" y="0" fill="#fff" width="1490.4296281075" height="644.8676251933058"></rect><rect x="983.8823341448799" y="535.1867486954937" fill="#000" width="112.5" height="19.2" opacity="1"></rect></mask><g transform="translate(983.8823341448797 535.1867486954937) rotate(0 56.57752434690951 9.26185704097162)"><text x="56.25" y="15.45" font-family="Cascadia, Segoe UI Emoji" font-size="16px" fill="#1e1e1e" text-anchor="middle" style="white-space: pre;" direction="ltr" dominant-baseline="alphabetic">Support NGOs</text></g><g mask="url(#mask-ka7y6oSr5MzO5w1FjNIft)" stroke-linecap="round"><g transform="translate(1386.9673437487968 586.8750631898502) rotate(0 -139.21733719753706 1.0995352440598367)"><path d="M-0.74 0.31 C-46.95 0.63, -231.65 2.49, -277.93 2.97 M1.07 -0.57 C-45.19 -0.08, -231.9 0.93, -278.62 1.26" stroke="#1e1e1e" stroke-width="2" fill="none"></path></g><g transform="translate(1386.9673437487968 586.8750631898502) rotate(0 -139.21733719753706 1.0995352440598367)"><path d="M-255.18 -7.44 C-260.3 -4.63, -265.24 -3.4, -278.62 1.26 M-255.18 -7.44 C-263.84 -3.98, -272.81 -0.44, -278.62 1.26" stroke="#1e1e1e" stroke-width="2" fill="none"></path></g><g transform="translate(1386.9673437487968 586.8750631898502) rotate(0 -139.21733719753706 1.0995352440598367)"><path d="M-255.08 9.66 C-260.37 8.3, -265.33 5.37, -278.62 1.26 M-255.08 9.66 C-263.64 6.6, -272.65 3.6, -278.62 1.26" stroke="#1e1e1e" stroke-width="2" fill="none"></path></g></g><mask id="mask-ka7y6oSr5MzO5w1FjNIft"><rect x="0" y="0" fill="#fff" width="1765.402018143871" height="689.0741336779698"></rect><rect x="1154.0000065512597" y="549.57459843391" fill="#000" width="187.5" height="76.8" opacity="1"></rect></mask><g transform="translate(1154.0000065512595 549.57459843391) rotate(0 94.19206401354631 38.50029834513077)"><text x="93.75" y="15.45" font-family="Cascadia, Segoe UI Emoji" font-size="16px" fill="#1e1e1e" text-anchor="middle" style="white-space: pre;" direction="ltr" dominant-baseline="alphabetic">Provide </text><text x="93.75" y="34.65" font-family="Cascadia, Segoe UI Emoji" font-size="16px" fill="#1e1e1e" text-anchor="middle" style="white-space: pre;" direction="ltr" dominant-baseline="alphabetic">certification </text><text x="93.75" y="53.849999999999994" font-family="Cascadia, Segoe UI Emoji" font-size="16px" fill="#1e1e1e" text-anchor="middle" style="white-space: pre;" direction="ltr" dominant-baseline="alphabetic">services, eco labels</text><text x="93.75" y="73.05" font-family="Cascadia, Segoe UI Emoji" font-size="16px" fill="#1e1e1e" text-anchor="middle" style="white-space: pre;" direction="ltr" dominant-baseline="alphabetic">etc.</text></g></svg>